# xmcd
#
# Track frame offsets:
#	150
#	15767
#	29817
#	41480
#	61370
#	74277
#	89377
#	102752
#	112925
#	128282
#	141905
#	159715
#	174435
#	189192
#	200884
#	213220
#	225722
#	237634
#	251090
#	263715
#
# Disc length: 3728 seconds
#
# Revision: 0
# Processed by: cddbd v1.5.1PL2 Copyright (c) Steve Scherf et al.
# Submitted via: dBpowerAMP V4.0
#
DISCID=120e8e14
DTITLE=Mattão and Monteiro - O Que a Gente Não Faz Por Amor - (Coletânea de Sucessos)
DYEAR=1900
DGENRE=Country
TTITLE0=O Que A Gente Não Faz Por Amor
TTITLE1=Deusa Do Araguaia
TTITLE2=Proposta
TTITLE3=Envolva-me
TTITLE4=Pago Dobrado
TTITLE5=Realidade
TTITLE6=Viva O Amor
TTITLE7=Grito, Soluço E Suor
TTITLE8=Quanto Custa Seu Amor
TTITLE9=A Fronha Da Solidão
TTITLE10=Mil Vezes
TTITLE11=Nuvem Passageira
TTITLE12=Solidão De Amigos
TTITLE13=Natureza Viva
TTITLE14=História De Um Amor
TTITLE15=Perdão Amor
TTITLE16=Gosto De Fel
TTITLE17=A Voz Do Coração
TTITLE18=Cavalo Preto Valente
TTITLE19=Entre A Cruz E A Espada
EXTD=Mattão and Monteiro (o que a gente não faz por amor) - Coletânea de Sucessos
EXTT0=
EXTT1=
EXTT2=
EXTT3=
EXTT4=
EXTT5=
EXTT6=
EXTT7=
EXTT8=
EXTT9=
EXTT10=
EXTT11=
EXTT12=
EXTT13=
EXTT14=
EXTT15=
EXTT16=
EXTT17=
EXTT18=
EXTT19=
PLAYORDER=
